<svg xmlns="http://www.w3.org/2000/svg" width="375" viewBox="0 0 375 375" height="375" version="1.0"><defs><clipPath id="a"><path d="M 109.515625 220.394531 L 265.515625 220.394531 L 265.515625 257.144531 L 109.515625 257.144531 Z M 109.515625 220.394531"/></clipPath><clipPath id="b"><path d="M 111.394531 188 L 261.261719 188 L 261.261719 200.441406 L 111.394531 200.441406 Z M 111.394531 188"/></clipPath><clipPath id="c"><path d="M 337 160 L 342.765625 160 L 342.765625 187 L 337 187 Z M 337 160"/></clipPath><clipPath id="d"><path d="M 338 198 L 342.765625 198 L 342.765625 219 L 338 219 Z M 338 198"/></clipPath><clipPath id="e"><path d="M 17.265625 196 L 18 196 L 18 209 L 17.265625 209 Z M 17.265625 196"/></clipPath></defs><g clip-path="url(#a)"><path fill="#100F0D" d="M 197.070312 225.398438 C 192.339844 226.554688 189.039062 229.871094 187.515625 233.941406 C 185.992188 229.871094 182.691406 226.554688 177.960938 225.398438 C 162.632812 221.648438 143.21875 245.941406 109.515625 220.492188 C 116.785156 238.660156 140.371094 258.382812 166.996094 256.976562 C 178.730469 256.359375 185.230469 250.878906 187.515625 244.625 C 189.804688 250.878906 196.300781 256.359375 208.035156 256.976562 C 234.664062 258.382812 258.246094 238.660156 265.515625 220.492188 C 234.328125 247.78125 212.398438 221.648438 197.070312 225.398438 Z M 197.070312 225.398438"/></g><g clip-path="url(#b)"><path fill="#100F0D" d="M 260.171875 193.605469 C 252.699219 201.285156 229.851562 200.414062 229.851562 200.414062 L 142.804688 200.414062 C 142.804688 200.414062 119.957031 201.285156 112.484375 193.605469 C 106.4375 187.390625 127.136719 187.804688 136.722656 188.1875 C 138.984375 188.28125 140.625 188.371094 141.152344 188.371094 C 141.152344 188.371094 172.515625 188 186.328125 188 C 200.140625 188 231.503906 188.371094 231.503906 188.371094 C 232.03125 188.371094 233.671875 188.28125 235.933594 188.1875 C 245.519531 187.804688 266.21875 187.390625 260.171875 193.605469"/></g><path fill="#100F0D" d="M 233.414062 169.789062 C 227.152344 168.535156 186.328125 168.121094 186.328125 168.121094 C 186.328125 168.121094 146.5625 168.519531 139.25 169.726562 C 139.949219 159.1875 140.347656 146.859375 141.761719 137.316406 C 144.628906 117.945312 163.652344 121.347656 169.910156 125.011719 C 176.164062 128.679688 186.328125 129.203125 186.328125 129.203125 C 186.328125 129.203125 196.492188 128.679688 202.746094 125.011719 C 209 121.347656 228.027344 117.945312 230.894531 137.316406 C 232.3125 146.878906 232.707031 159.242188 233.414062 169.789062"/><path fill="#FFF" d="M 235.933594 188.1875 C 233.671875 188.28125 232.03125 188.371094 231.503906 188.371094 C 231.503906 188.371094 200.140625 188 186.328125 188 C 172.515625 188 141.152344 188.371094 141.152344 188.371094 C 140.625 188.371094 138.984375 188.28125 136.722656 188.1875 C 138.066406 184.21875 138.738281 177.457031 139.25 169.726562 C 146.5625 168.519531 186.328125 168.121094 186.328125 168.121094 C 186.328125 168.121094 227.152344 168.535156 233.414062 169.789062 C 233.917969 177.496094 234.589844 184.230469 235.933594 188.1875"/><path fill="#231F20" d="M 43.925781 155.632812 C 43.859375 155.292969 42.960938 157.132812 42.386719 159.234375 C 41.925781 161.40625 41.726562 163.105469 42.050781 162.539062 C 42.226562 162.234375 42.597656 160.917969 42.878906 160.058594 C 43.367188 157.945312 44.070312 155.996094 43.925781 155.632812 Z M 39.816406 172.238281 C 39.769531 172.300781 39.578125 173.035156 39.445312 173.480469 C 39.453125 173.769531 39.429688 174.34375 39.476562 174.265625 C 39.523438 174.191406 39.609375 173.449219 39.769531 173.015625 C 39.792969 172.726562 39.871094 172.167969 39.816406 172.238281 Z M 330.398438 242.976562 C 330.050781 243.882812 329.652344 244.917969 329.265625 245.917969 C 330.128906 242.597656 331.074219 238.882812 332.070312 233.769531 C 333.222656 228.9375 334.296875 224.210938 334.5 219.507812 C 336.183594 205.015625 335.675781 189.480469 332.957031 174.304688 C 331.144531 162.292969 327.085938 151.289062 322.667969 141.355469 C 320.589844 137.347656 318.34375 133.191406 316.253906 128.671875 C 312.960938 123.3125 310.109375 117.886719 306.144531 113.0625 C 303.796875 110.152344 301.585938 107.058594 299.113281 104.167969 L 291.328125 95.800781 C 278.144531 82.480469 262.398438 71.742188 245.15625 64.332031 C 242.203125 62.824219 239.089844 61.71875 235.941406 60.714844 L 226.554688 57.535156 C 220.085938 56.265625 213.773438 54.09375 207.164062 53.605469 C 185.152344 50.546875 162.484375 52.363281 141.242188 59.101562 C 124.023438 64.582031 107.859375 73.542969 93.839844 84.96875 C 92.109375 86.152344 90.648438 87.71875 89.109375 89.0625 C 78.253906 97.894531 69.765625 109.21875 62.269531 120.742188 C 51.734375 137.910156 44.597656 157.105469 41.425781 177.050781 C 40.949219 181.515625 40.066406 185.972656 39.949219 190.492188 C 39.921875 195.015625 39.644531 199.542969 39.789062 204.050781 C 40.34375 218.292969 43.148438 232.347656 47.464844 245.890625 C 52.042969 259.378906 58.742188 272.035156 66.714844 283.765625 C 67.5625 284.863281 68.417969 285.972656 69.25 287.050781 L 74.542969 294.109375 L 80.519531 300.585938 C 84.300781 305.109375 89.070312 308.613281 93.367188 312.605469 C 94.632812 313.84375 96.203125 315.023438 97.53125 316.117188 C 98.667969 317.035156 98.429688 316.980469 97.117188 316.050781 C 93.617188 313.839844 90.796875 310.78125 87.605469 308.179688 C 84.375 305.59375 81.550781 302.589844 78.761719 299.542969 C 76.4375 296.988281 73.828125 294.484375 71.890625 291.761719 C 65.273438 283.984375 59.929688 275.453125 55.996094 270.460938 C 54.917969 268.882812 53.183594 265.601562 51.582031 262.199219 C 51.097656 261.160156 50.738281 260.179688 50.433594 259.367188 C 50.332031 259.09375 50.507812 259.210938 50.707031 259.515625 C 51.160156 260.261719 51.742188 261.210938 52.265625 262.0625 C 52.785156 262.902344 53.351562 263.820312 53.78125 264.519531 C 53.96875 264.796875 54.035156 264.730469 53.976562 264.488281 C 53.917969 264.246094 53.660156 263.542969 53.453125 263.132812 C 51.453125 259.492188 49.941406 255.621094 48.496094 251.78125 C 47.160156 248.339844 45.972656 245.992188 45.257812 244.800781 C 44.886719 244.136719 44.546875 243.621094 44.105469 242.609375 C 43.46875 241.167969 42.6875 238.710938 41.902344 235.816406 C 41.558594 234.464844 41.199219 233.0625 40.875 231.792969 C 40.273438 227.59375 39.675781 223.488281 38.949219 219.480469 C 38.203125 215.46875 38.128906 211.453125 37.523438 207.550781 C 36.988281 204.375 36.964844 200.890625 37.207031 197.292969 C 37.335938 194.09375 37.21875 191.945312 37.011719 190.386719 C 36.898438 189.304688 36.632812 188.390625 36.679688 187.160156 C 36.675781 185.929688 36.613281 184.621094 36.789062 182.910156 C 37.121094 178.941406 37.402344 175.601562 37.660156 172.523438 C 38.113281 169.464844 38.523438 166.671875 38.949219 163.792969 C 39.164062 162.351562 39.613281 160.042969 40.199219 157.820312 C 40.960938 155.648438 41.773438 153.535156 42.316406 152.375 C 43.132812 150.726562 43.707031 149.5625 44.472656 148.023438 C 45.6875 145.164062 47.230469 141.460938 48.261719 138.398438 C 48.617188 137.214844 48.722656 136.507812 49.171875 135.167969 C 49.609375 133.859375 50.257812 131.980469 50.964844 130.421875 C 54.144531 124.511719 56.761719 119.402344 59.949219 114.140625 C 60.269531 113.675781 60.960938 112.792969 61.15625 112.589844 C 61.65625 112.089844 62.320312 111.410156 62.285156 111.644531 C 62.226562 112.042969 61.640625 113.144531 61.382812 113.808594 C 60.089844 116.546875 58.730469 120.816406 53.480469 129.714844 C 51.808594 133.351562 50.488281 136.972656 49.03125 140.539062 C 48.304688 142.316406 48.011719 143.757812 48.550781 142.765625 C 49.070312 141.816406 49.730469 140.625 50.199219 139.578125 L 53.855469 131.367188 C 55.148438 128.671875 56.785156 126.15625 58.222656 123.539062 C 60.984375 118.207031 64.550781 113.398438 68.066406 108.539062 C 70.175781 105.28125 72.910156 102.503906 75.453125 99.574219 C 78.003906 96.648438 80.53125 93.695312 83.492188 91.167969 C 85.554688 89.246094 87.800781 87.144531 89.640625 85.425781 C 96.472656 79.398438 103.765625 74.1875 111.769531 69.808594 C 115.832031 67.222656 120.617188 65.488281 124.925781 63.183594 C 140.351562 56.15625 156.964844 51.929688 173.808594 50.25 C 179.0625 49.824219 184.339844 49.269531 189.644531 49.621094 L 197.601562 49.800781 C 200.238281 50.007812 202.863281 50.429688 205.496094 50.730469 C 212.921875 51.300781 220.082031 53.378906 227.339844 54.9375 C 234.324219 57.433594 241.582031 59.273438 248.214844 62.679688 C 252.039062 64.488281 256.15625 66.042969 259.597656 68.179688 C 268.320312 72.699219 276.542969 78.382812 283.96875 84.828125 C 298.359375 97.304688 310.667969 112.375 319.503906 129.324219 C 321.296875 133.144531 323.320312 136.875 325.046875 140.746094 L 329.644531 152.640625 C 332.085938 160.769531 334.332031 168.996094 335.5 177.4375 C 336.097656 180.21875 336.371094 183.273438 336.554688 185.820312 C 337.253906 191.71875 337.753906 197.65625 337.359375 203.628906 C 337.453125 209.613281 336.539062 215.539062 335.667969 221.476562 C 335.488281 222.863281 335.289062 224.390625 335.125 225.679688 C 333.597656 232.453125 332.519531 237.851562 330.398438 242.976562"/><path fill="#231F20" d="M 34.425781 257.554688 C 33.363281 254.703125 32.132812 251.882812 31.167969 248.984375 C 30.355469 246.039062 29.546875 243.109375 28.753906 240.234375 C 26.820312 233.957031 26.1875 227.429688 24.96875 221.042969 C 24.160156 214.597656 23.726562 208.085938 23.488281 201.589844 C 23.195312 184.53125 25.941406 167.816406 30.316406 151.746094 C 32.367188 145.847656 33.800781 139.976562 36.671875 134.953125 C 39.621094 129.078125 42.308594 122.824219 45.875 116.9375 C 46.953125 114.984375 48 113.085938 49.097656 111.105469 C 50.546875 108.492188 52.558594 106.179688 52.660156 105.910156 C 55.203125 102.546875 56.121094 101.339844 56.996094 100.179688 C 57.808594 99.050781 58.785156 97.613281 59.230469 96.855469 C 62.476562 92.496094 59.671875 93.574219 55.167969 99.671875 C 52.503906 103.324219 49.4375 106.816406 47.214844 110.917969 C 44.699219 115.636719 41.796875 120.164062 39.460938 125.015625 C 37.292969 129.945312 34.851562 134.804688 32.835938 139.886719 C 27.003906 155.117188 23.578125 171.230469 22.15625 187.476562 C 22.03125 192.855469 21.902344 198.605469 22.003906 203.4375 C 22.457031 208.214844 22.914062 213.058594 23.378906 217.964844 C 24.03125 222.839844 25.039062 227.734375 25.859375 232.726562 C 27.945312 241.71875 30.382812 250.648438 33.972656 259.109375 C 34.816406 261.285156 35.515625 262.582031 35.78125 262.679688 C 36.097656 262.785156 35.339844 259.914062 34.425781 257.554688"/><path fill="#231F20" d="M 74.78125 88.3125 C 78.824219 84.824219 82.3125 81.675781 85.40625 78.714844 C 88.71875 76.007812 91.691406 73.566406 94.355469 71.078125 C 96.480469 68.988281 98.402344 67.339844 100.382812 65.808594 C 103.769531 63.058594 102.773438 63.0625 97.332031 65.84375 C 94.355469 67.402344 91.425781 69.585938 87.570312 72.367188 C 86.386719 73.28125 85.042969 74.316406 84.050781 75.085938 C 81.523438 77.386719 79.136719 79.914062 76.558594 82.371094 C 73.957031 84.808594 71.339844 87.375 68.898438 90.347656 C 66.710938 92.828125 64.699219 95.691406 64.941406 95.851562 C 65.214844 96.039062 65.652344 96.035156 66.136719 95.976562 C 67.121094 95.875 69.828125 93.359375 74.78125 88.3125"/><path fill="#231F20" d="M 168.445312 30.707031 C 169.222656 30.648438 170.039062 30.582031 170.832031 30.515625 C 181.164062 29.351562 191.546875 29.484375 201.925781 30.355469 C 207.359375 31.167969 213.050781 31.535156 218.507812 32.617188 C 220.652344 33.050781 222.726562 33.472656 225.628906 34.058594 C 223.421875 33.480469 222.183594 33.15625 220.863281 32.808594 C 192.160156 26.085938 161.28125 28.796875 133.179688 37.707031 C 128.738281 39.390625 124.25 41.089844 119.75 42.792969 L 106.816406 49.191406 L 104.738281 50.261719 C 102.644531 51.566406 100.355469 53.320312 101.523438 52.714844 C 102.539062 52.1875 103.824219 51.539062 104.925781 50.863281 C 124.472656 40.039062 146.148438 32.925781 168.445312 30.707031"/><path fill="#231F20" d="M 308.78125 288.558594 C 311.246094 285.21875 313.480469 282.632812 314.972656 279.472656 C 316.117188 277.324219 317.246094 274.757812 316.628906 275.445312 C 316.089844 276.046875 315.222656 277.085938 314.417969 278.402344 C 311.613281 283.382812 307.644531 287.59375 304.34375 292.253906 C 300.648438 296.613281 296.671875 300.773438 292.6875 304.90625 C 290.863281 306.519531 288.839844 308.574219 286.960938 310.410156 C 285.691406 311.648438 285.425781 312.359375 286.597656 311.425781 C 288.707031 309.722656 290.730469 308.09375 293.125 306.167969 C 298.566406 300.777344 304.441406 294.976562 308.78125 288.558594"/><g clip-path="url(#c)"><path fill="#231F20" d="M 340.679688 179.902344 C 341.472656 184.316406 341.886719 186.414062 342.613281 186.53125 C 342.613281 186.53125 342.804688 184.445312 342.722656 181.902344 C 342.417969 177.738281 341.5625 173.445312 340.777344 169.167969 C 340.054688 164.660156 338.621094 161.855469 338.09375 161.136719 C 337.382812 160.355469 337.113281 161.144531 338.109375 165.859375 C 338.714844 170.664062 339.65625 175.617188 340.679688 179.902344"/></g><path fill="#231F20" d="M 127.738281 45.277344 C 127.507812 45.308594 126.765625 45.511719 126.21875 45.714844 C 123.375 46.734375 120.53125 47.816406 117.851562 49.242188 L 117.859375 49.277344 L 109.625 53.347656 C 99.050781 59.292969 97.328125 61.109375 99.136719 61.066406 C 99.484375 61.078125 99.863281 61.074219 100.675781 60.78125 C 101.125 60.617188 102.460938 59.878906 103.519531 59.292969 C 103.875 59.097656 104.933594 58.402344 105.109375 58.25 C 106.894531 56.558594 109.570312 54.835938 112.875 52.988281 C 116.203125 51.210938 119.898438 48.734375 124.378906 47 C 125.625 46.484375 126.660156 45.984375 127.578125 45.535156 C 127.953125 45.351562 127.972656 45.246094 127.738281 45.277344"/><g clip-path="url(#d)"><path fill="#231F20" d="M 339.949219 205.6875 C 339.824219 208.898438 339.5625 212.273438 338.949219 215.628906 C 338.835938 216.4375 338.835938 217.617188 338.785156 218.628906 C 338.933594 218.464844 339.054688 218.789062 339.226562 218.058594 C 340.320312 213.234375 341.292969 210.75 341.886719 210.679688 C 342.007812 210.671875 342.148438 209.738281 342.28125 209.242188 C 342.503906 208.40625 342.730469 203.886719 342.621094 201.816406 C 342.542969 200.3125 342.402344 198.4375 342.25 198.519531 C 341.730469 198.796875 341.195312 199.78125 340.664062 200.65625 C 340.378906 201.125 340.117188 203 339.949219 205.6875"/></g><path fill="#231F20" d="M 75.175781 79.410156 C 79.308594 75.554688 82.507812 72.144531 82.863281 71.402344 C 82.199219 71.808594 81.441406 71.996094 80.1875 73.007812 C 77.207031 75.425781 73.167969 79.253906 70.953125 81.679688 C 69.257812 83.546875 69.0625 84.222656 71.035156 82.835938 C 71.90625 82.222656 73.820312 80.660156 75.175781 79.410156"/><path fill="#231F20" d="M 304.929688 304.554688 C 304.554688 304.929688 303.496094 306.300781 302.753906 307.214844 C 302.84375 307.3125 302.65625 307.726562 303.0625 307.441406 C 304.953125 305.960938 308.605469 302.824219 312.578125 297.589844 C 313.261719 296.648438 314.210938 295.167969 314.359375 294.804688 C 314.5 294.46875 313.925781 294.972656 313.34375 295.660156 C 310.929688 298.769531 307.933594 301.585938 304.929688 304.554688"/><path fill="#231F20" d="M 300.628906 314.636719 C 298.464844 316.726562 296.613281 318.796875 296.839844 318.882812 C 297.089844 319.121094 298.789062 317.921875 300.59375 316.621094 C 300.921875 316.382812 301.679688 315.773438 301.933594 315.523438 C 302.808594 314.699219 303.964844 313.46875 304.101562 313.117188 C 304.707031 311.980469 305.117188 311.050781 305.335938 310.324219 C 305.441406 309.734375 302.785156 312.773438 300.628906 314.636719"/><path fill="#231F20" d="M 77.324219 94.449219 C 77.117188 94.839844 77.257812 94.914062 77.71875 94.53125 C 78.171875 94.132812 79.226562 92.980469 80.144531 92.289062 C 82.992188 89.640625 84.796875 87.722656 85.125 86.953125 C 85.222656 86.722656 84.730469 86.964844 84.078125 87.460938 C 83.4375 87.957031 82.175781 89.070312 81.324219 89.878906 C 79.226562 91.800781 77.789062 93.449219 77.324219 94.449219"/><path fill="#231F20" d="M 120.148438 52.960938 C 119.898438 53.0625 119.152344 53.371094 118.648438 53.574219 C 118.019531 53.882812 117.316406 54.226562 116.777344 54.488281 C 111.332031 57.386719 109.886719 58.777344 113.953125 57.222656 C 114.652344 56.953125 116.710938 55.980469 117.492188 55.542969 C 121.28125 53.425781 122.367188 52.328125 120.148438 52.960938"/><path fill="#231F20" d="M 25.964844 147.5625 C 26.121094 147.023438 26.195312 146.542969 26.136719 146.558594 C 26.074219 146.574219 25.789062 147.261719 25.585938 147.695312 C 23.28125 153.417969 22.117188 159.574219 20.980469 165.421875 C 20.882812 165.945312 20.878906 166.363281 20.941406 166.324219 C 21.003906 166.289062 21.214844 165.726562 21.355469 165.175781 C 22.929688 159.207031 24.105469 153.171875 25.964844 147.5625"/><path fill="#231F20" d="M 51.246094 97.976562 C 52.46875 96.265625 52.855469 95.558594 52.265625 96.203125 C 52.019531 96.464844 51.371094 97.316406 50.957031 97.886719 C 48.699219 101.148438 46.222656 104.269531 44.167969 107.65625 L 38.265625 117.972656 C 38.027344 118.390625 37.921875 118.753906 37.753906 119.140625 C 38.023438 118.777344 38.355469 118.394531 38.550781 118.050781 L 44.46875 107.734375 C 46.539062 104.359375 48.992188 101.234375 51.246094 97.976562"/><path fill="#231F20" d="M 339.722656 158.691406 C 340.167969 159.421875 339.964844 157.710938 339.25 154.695312 C 338.660156 151.777344 337.472656 148.722656 336.9375 148.226562 C 336.425781 147.722656 336.945312 149.347656 337.625 152.105469 C 338.277344 154.839844 339.257812 157.925781 339.722656 158.691406"/><path fill="#231F20" d="M 323.902344 267.546875 C 323.78125 267.378906 323.453125 267.632812 322.988281 268.273438 C 322.757812 268.605469 322.007812 270.222656 321.320312 271.167969 C 320.175781 273.269531 319.53125 274.777344 319.609375 275.246094 C 319.664062 275.554688 320.257812 274.863281 321.421875 273.03125 C 322.988281 270.792969 324.089844 267.804688 323.902344 267.546875"/><path fill="#231F20" d="M 171.574219 43.125 C 171.324219 43.101562 170.109375 43.164062 169.59375 43.222656 C 165.570312 43.792969 163.632812 44.789062 165.664062 44.730469 C 166.066406 44.765625 168.300781 44.296875 169.261719 44.277344 C 172.175781 43.953125 172.964844 43.644531 173.160156 43.359375 C 172.660156 43.277344 172.285156 43.179688 171.574219 43.125"/><path fill="#231F20" d="M 119.085938 59.226562 C 120.460938 58.300781 120.605469 57.972656 119.261719 58.363281 C 118.980469 58.449219 118.324219 58.691406 117.941406 58.882812 C 116.867188 59.425781 115.398438 60.164062 114.898438 60.488281 C 113.894531 61.140625 113.433594 61.570312 112.835938 62.027344 C 113.390625 61.90625 113.632812 61.929688 114.324219 61.695312 C 115.265625 61.375 118.085938 59.902344 119.085938 59.226562"/><path fill="#231F20" d="M 304.230469 297.222656 C 304.472656 296.785156 304.371094 296.664062 303.996094 296.914062 C 303.664062 297.132812 302.679688 298.027344 302.09375 298.683594 C 301.449219 299.410156 300.933594 300.210938 300.351562 300.980469 C 300.429688 301.089844 300.269531 301.480469 300.652344 301.222656 C 300.988281 301 301.960938 300.113281 302.582031 299.417969 C 303.207031 298.71875 304.011719 297.621094 304.230469 297.222656"/><path fill="#231F20" d="M 85.59375 63.222656 C 86.523438 62.449219 86.449219 62.4375 85.035156 63.484375 C 80.804688 66.546875 76.769531 69.621094 73.566406 73.121094 C 72.429688 74.277344 72.496094 74.261719 73.878906 73.054688 C 77.816406 69.367188 81.753906 66.496094 85.59375 63.222656"/><path fill="#231F20" d="M 267.453125 50.515625 C 269.464844 51.703125 271.648438 52.726562 270.964844 52.152344 C 270.550781 51.804688 269.09375 50.835938 268.226562 50.34375 C 266.503906 49.347656 264.863281 48.5 263.082031 47.835938 C 263.503906 48.140625 263.554688 48.253906 264 48.484375 C 265.117188 49.003906 266.257812 49.828125 267.453125 50.515625"/><g clip-path="url(#e)"><path fill="#231F20" d="M 17.773438 201.265625 C 17.753906 199.84375 17.734375 198.402344 17.714844 197.242188 C 17.644531 195.355469 17.488281 197.453125 17.382812 202.042969 C 17.28125 203.597656 17.523438 205.15625 17.609375 206.6875 C 17.6875 207.363281 17.757812 207.960938 17.832031 208.59375 C 17.847656 207.6875 17.910156 206.949219 17.871094 205.824219 C 17.796875 204.472656 17.707031 202.738281 17.773438 201.265625"/></g><path fill="#231F20" d="M 152.058594 42.59375 C 151.09375 42.898438 150.097656 43.296875 149.996094 43.421875 C 149.792969 43.738281 151.988281 43.105469 153.972656 42.753906 C 154.960938 42.546875 155.476562 42.328125 156.207031 42.109375 C 156.09375 41.953125 154 42.089844 152.058594 42.59375"/><path fill="#231F20" d="M 330.679688 257.113281 C 331.058594 255.984375 330.699219 256.449219 329.960938 257.949219 C 329.691406 258.488281 329.230469 259.511719 329.136719 259.796875 C 328.875 260.59375 328.722656 261.210938 328.632812 261.6875 C 328.613281 261.777344 329.101562 260.851562 329.359375 260.390625 C 329.808594 259.269531 330.382812 257.851562 330.679688 257.113281"/><path fill="#231F20" d="M 327.230469 254.070312 C 327.269531 253.953125 327.652344 252.832031 327.832031 252.300781 C 328.71875 249.339844 328.738281 248.445312 328.847656 247.339844 C 327.964844 250.074219 326.988281 252.988281 326.6875 254.707031 C 326.609375 255.148438 326.988281 254.480469 327.230469 254.070312"/><path fill="#231F20" d="M 328.847656 247.339844 C 328.96875 246.933594 329.050781 246.652344 329.171875 246.253906 C 329.195312 246.164062 329.238281 246.011719 329.265625 245.917969 L 329 246.613281 C 328.964844 246.777344 328.882812 247.179688 328.847656 247.339844"/><path fill="#231F20" d="M 151.023438 48.691406 C 150.71875 48.746094 149.789062 48.988281 149.375 49.125 C 148.003906 49.570312 147.820312 49.734375 148.890625 49.550781 C 149.191406 49.476562 149.988281 49.269531 150.515625 49.132812 C 151.890625 48.671875 152.121094 48.503906 151.023438 48.691406"/><path fill="#231F20" d="M 128.238281 58.382812 C 128.878906 58.042969 129.410156 57.757812 129.972656 57.457031 L 128.464844 57.929688 L 126.792969 58.835938 C 127.292969 58.675781 128.1875 58.394531 128.238281 58.382812"/><path fill="#231F20" d="M 332.503906 147.242188 C 331.851562 145.796875 331.820312 146.023438 332.429688 147.804688 C 332.613281 148.242188 332.902344 148.933594 333.144531 149.507812 C 333.160156 149.375 333.269531 149.441406 333.160156 149.066406 C 333.042969 148.65625 332.667969 147.601562 332.503906 147.242188"/><path fill="#231F20" d="M 166.488281 48.109375 L 166.625 47.960938 L 165.429688 48.222656 Z M 166.488281 48.109375"/><path fill="#231F20" d="M 72.066406 95.273438 L 71.386719 95.898438 L 71.214844 96.273438 Z M 72.066406 95.273438"/><path fill="#231F20" d="M 244.433594 55.519531 L 244.269531 55.292969 C 243.953125 55.164062 243.605469 55.117188 243.273438 55.023438 C 243.667969 55.171875 244.0625 55.316406 244.433594 55.519531"/><path fill="#231F20" d="M 292.296875 75.28125 L 291.175781 74.316406 L 291.980469 75.140625 Z M 292.296875 75.28125"/></svg>